<?xml version="1.0" encoding="UTF-8"?>
<svg width="370px" height="35px" viewBox="0 0 370 35" version="1.1" xmlns="http://www.w3.org/2000/svg" xmlns:xlink="http://www.w3.org/1999/xlink">
    <title>异形</title>
    <g id="页面-1" stroke="none" stroke-width="1" fill="none" fill-rule="evenodd">
        <g id="我的" transform="translate(-360.000000, -1512.000000)" fill="#0D3039">
            <g id="编组-38" transform="translate(360.000000, 1276.000000)">
                <g id="编组-35备份-3" transform="translate(0.000000, 68.000000)">
                    <g id="异形" transform="translate(0.000000, 168.000000)">
                        <path d="M370,0 L370,11 C370,24.254834 359.254834,35 346,35 L223.04868,35 C216.490738,35.0000111 210.559795,31.1033361 207.95642,25.0842797 C207.95642,25.0842797 207.95642,25.0842797 207.95642,25.0842797 C204.117995,16.2097666 195.284182,10 185,10 C174.74998,10 165.940709,16.1685802 162.081997,24.9959306 C162.081997,24.9959306 162.081997,24.9959306 162.081997,24.9959306 C159.425599,31.0728167 153.422895,35.0000051 146.790776,35 L24,35 L24,35 C10.745166,35 0,24.254834 0,11 L0,0 L370,0 Z" id="路径"></path>
                        <path d="M202.436081,30.5124199 C202.436081,30.5124199 202.436081,30.5124199 202.436081,30.5124199 C200.442226,22.7425781 193.391764,17 185.000045,17 C176.609957,17 169.560576,22.7403466 167.565134,30.5078907 C167.565134,30.5078907 167.565134,30.5078907 167.565134,30.5078907 C167.070828,32.4320513 168.229953,34.3926065 170.154114,34.8869133 C170.446525,34.9620322 170.74723,35.0000399 171.049135,35 L198.954704,35 C200.939713,34.9999689 202.54888,33.3908013 202.54888,31.4057926 C202.54888,31.1044505 202.510983,30.8043047 202.436081,30.5124199 Z" id="半圆"></path>
                    </g>
                </g>
            </g>
        </g>
    </g>
</svg>