<?xml version="1.0" encoding="UTF-8"?>
<svg width="24px" height="26px" viewBox="0 0 24 26" version="1.1" xmlns="http://www.w3.org/2000/svg" xmlns:xlink="http://www.w3.org/1999/xlink">
    <title>节点竞选</title>
    <g id="页面-1" stroke="none" stroke-width="1" fill="none" fill-rule="evenodd">
        <g id="Tab-bar" transform="translate(-160.000000, -180.000000)">
            <g id="底部栏备份-3" transform="translate(59.000000, 173.976183)">
                <g id="2" transform="translate(75.000000, 0.000000)">
                    <g id="节点竞选" transform="translate(26.000000, 7.000000)">
                        <polygon id="路径" points="0 24 24 24 24 0 0 0"></polygon>
                        <path d="M13.1574876,1.63716901 L15.5335242,3.00888873 C14.5574456,4.03676633 13.9585364,5.42626647 13.9585364,6.95564936 C13.9585364,10.1216449 16.5250828,12.6881914 19.6910783,12.6881914 C20.2549507,12.6881914 20.7998081,12.606779 21.3145376,12.4550676 L21.3149752,15.766352 C21.3149752,17.5526799 20.3619806,19.203315 18.8149752,20.096479 L13.1574876,23.362831 C11.6104822,24.255995 9.70449298,24.255995 8.1574876,23.362831 L2.5,20.096479 C0.952994616,19.203315 -6.42819131e-13,17.5526799 -6.42152997e-13,15.766352 L-6.43041176e-13,9.23364801 C-6.45039577e-13,7.44732006 0.952994616,5.79668497 2.5,4.90352099 L8.1574876,1.63716901 C9.70449298,0.744005032 11.6104822,0.744005032 13.1574876,1.63716901 Z M19.6910783,3.30766809 C21.7058028,3.30766809 23.3390596,4.94092493 23.3390596,6.95564936 C23.3390596,8.97037378 21.7058028,10.6036306 19.6910783,10.6036306 C17.6763539,10.6036306 16.0430971,8.97037378 16.0430971,6.95564936 C16.0430971,4.94092493 17.6763539,3.30766809 19.6910783,3.30766809 Z" id="形状结合备份-4" fill="#0F8585" fill-rule="nonzero"></path>
                    </g>
                </g>
            </g>
        </g>
    </g>
</svg>