<?xml version="1.0" encoding="UTF-8"?>
<svg width="20px" height="20px" viewBox="0 0 20 20" version="1.1" xmlns="http://www.w3.org/2000/svg" xmlns:xlink="http://www.w3.org/1999/xlink">
    <title>即将开始</title>
    <g id="提案" stroke="none" stroke-width="1" fill="none" fill-rule="evenodd">
        <g id="我的-提案详情" transform="translate(-156.000000, -420.000000)">
            <g id="编组-7备份-5" transform="translate(144.000000, 412.000000)">
                <g id="即将开始" transform="translate(12.000000, 8.000000)">
                    <rect id="矩形" x="0" y="0" width="20" height="20"></rect>
                    <path d="M10,0 C4.47777778,0 1.77635684e-15,4.47777778 1.77635684e-15,10 C1.77635684e-15,15.5222222 4.47777778,20 10,20 C15.5222222,20 20,15.5222222 20,10 C20,4.47777778 15.5222222,0 10,0 Z M10,3.99779016 C10.5128358,3.99779016 10.9355072,4.38383035 10.9932723,4.88116903 L11,4.99779016 L11,9.505 L14.6362192,12.2832937 C15.0413377,12.5927713 15.144069,13.1513107 14.8937797,13.5805983 L14.8238235,13.6850086 C14.514346,14.0901271 13.9558066,14.1928583 13.5265189,13.9425691 L13.4221087,13.8726129 L9.39294473,10.7946596 C9.17624948,10.6291221 9.03792261,10.3834672 9.00672675,10.1158622 L9,10 L9,4.99779016 C9,4.44550541 9.44771525,3.99779016 10,3.99779016 Z" id="形状结合" fill="#00CBEC" fill-rule="nonzero"></path>
                </g>
            </g>
        </g>
    </g>
</svg>