<?xml version="1.0" encoding="UTF-8"?>
<svg width="14px" height="15px" viewBox="0 0 14 15" version="1.1" xmlns="http://www.w3.org/2000/svg" xmlns:xlink="http://www.w3.org/1999/xlink">
    <title>指向icon</title>
    <g id="页面-1" stroke="none" stroke-width="1" fill="none" fill-rule="evenodd">
        <g id="节点竞选" transform="translate(-540.000000, -1088.000000)">
            <g id="编组-25" transform="translate(361.000000, 872.000000)">
                <g id="编组-23" transform="translate(101.000000, 187.941176)">
                    <g id="指向icon" transform="translate(78.000000, 29.000000)">
                        <rect id="矩形" x="0" y="0" width="14" height="14"></rect>
                        <g id="编组-12" transform="translate(2.545918, 2.447557)" fill="#337AFF" fill-rule="nonzero">
                            <path d="M2.3215903,0.0412853269 L8.2443169,0.0837279376 C8.58621198,0.0861779781 8.86941665,0.333430066 8.9281301,0.658490989 L8.93930078,0.783709965 L8.93930078,6.67580085 C8.93930078,7.06240018 8.62590011,7.37580085 8.23930078,7.37580085 C7.89565694,7.37580085 7.60984906,7.12817563 7.55057872,6.80162674 L7.53930078,6.67580085 L7.53859982,1.47799644 L2.31155808,1.44124938 C1.96792306,1.43878687 1.68389697,1.18911994 1.62696816,0.862154712 L1.61659216,0.736251241 C1.61905467,0.39261622 1.8687216,0.108590136 2.19568683,0.0516613219 L2.3215903,0.0412853269 Z" id="路径" transform="translate(5.277946, 3.708543) rotate(-360.000000) translate(-5.277946, -3.708543) "></path>
                            <path d="M4.53315578,-1.16092558 C4.87679873,-1.16013792 5.16203963,-0.911859804 5.22056312,-0.585176238 L5.23155331,-0.459324894 L5.20877337,9.50285652 C5.20788936,9.88945484 4.89377287,10.2021381 4.50717456,10.2012559 C4.16353161,10.2004683 3.87829071,9.95219014 3.81976722,9.62550658 L3.80877703,9.49965523 L3.83155697,-0.462526183 C3.83244098,-0.849124498 4.14655747,-1.16180772 4.53315578,-1.16092558 Z" id="路径" transform="translate(4.520165, 4.520165) rotate(-315.000000) translate(-4.520165, -4.520165) "></path>
                        </g>
                    </g>
                </g>
            </g>
        </g>
    </g>
</svg>