<?xml version="1.0" encoding="UTF-8"?>
<svg width="20px" height="20px" viewBox="0 0 20 20" version="1.1" xmlns="http://www.w3.org/2000/svg" xmlns:xlink="http://www.w3.org/1999/xlink">
    <title>已结束</title>
    <g id="提案" stroke="none" stroke-width="1" fill="none" fill-rule="evenodd">
        <g id="我的-提案详情" transform="translate(-156.000000, -512.000000)">
            <g id="编组-7备份-3" transform="translate(144.000000, 504.000000)">
                <g id="已结束" transform="translate(12.000000, 7.999999)">
                    <rect id="矩形" x="0" y="9.15272267e-07" width="20" height="20"></rect>
                    <path d="M10.0044096,9.15272381e-07 C5.9594592,-0.00172357929 2.31184129,2.43356829 0.762710077,6.17012059 C-0.786421132,9.90667289 0.0680705833,14.2084877 2.92767249,17.0693103 C5.7872744,19.9301329 10.0887236,20.78646 13.825936,19.2389229 C17.5631484,17.6913858 20,14.0448068 20,9.99985544 C20.0022611,7.3477749 18.9500212,4.80360365 17.0751167,2.92789882 C15.2002123,1.052194 12.6564905,-0.00113137608 10.0044096,9.15272381e-07 Z M7.7920227,5.40268609 C8.12443443,5.84373131 8.03636959,6.47074206 7.59532436,6.80315379 C6.59739675,7.55528266 6,8.7270846 6,10.0000009 C6,12.2091399 7.790861,14.0000009 10,14.0000009 C12.209139,14.0000009 14,12.2091399 14,10.0000009 C14,8.73146151 13.4067469,7.56325512 12.4145972,6.81065565 C11.9745827,6.47688075 11.8884585,5.8496005 12.2222334,5.409586 C12.5560083,4.9695715 13.1832885,4.88344729 13.623303,5.21722219 C15.1087491,6.34401377 16,8.0990235 16,10.0000009 C16,13.3137094 13.3137085,16.0000009 10,16.0000009 C6.6862915,16.0000009 4,13.3137094 4,10.0000009 C4,8.0924471 4.89745465,6.33207746 6.39155501,5.20598775 C6.83260023,4.87357602 7.45961097,4.96164087 7.7920227,5.40268609 Z M10,4.00000092 C10.5522847,4.00000092 11,4.44771617 11,5.00000092 L11,10.0000009 C11,10.5522857 10.5522847,11.0000009 10,11.0000009 C9.44771525,11.0000009 9,10.5522857 9,10.0000009 L9,5.00000092 C9,4.44771617 9.44771525,4.00000092 10,4.00000092 Z" id="形状结合" fill="#FA8282" fill-rule="nonzero"></path>
                </g>
            </g>
        </g>
    </g>
</svg>