<?xml version="1.0" encoding="UTF-8"?>
<svg width="36px" height="36px" viewBox="0 0 36 36" version="1.1" xmlns="http://www.w3.org/2000/svg" xmlns:xlink="http://www.w3.org/1999/xlink">
    <title>支持</title>
    <g id="提案" stroke="none" stroke-width="1" fill="none" fill-rule="evenodd">
        <g id="社区提案" transform="translate(-1114.000000, -949.000000)" fill-rule="nonzero">
            <g id="编组-24" transform="translate(360.000000, 604.000000)">
                <g id="编组-21备份-2" transform="translate(0.000000, 299.000000)">
                    <g id="编组-29" transform="translate(754.000000, 46.000000)">
                        <circle id="蒙版" fill="#10A3A4" cx="18" cy="18" r="18"></circle>
                        <path d="M18.9475492,8.64 C18.9475492,8.64 18.9681135,8.64236342 19.0047999,8.65055253 L19.0562781,8.66339738 C19.5743378,8.80547576 21.7042529,9.75773629 20.1555511,15.6437909 L20.1555511,15.6437909 L24.6870301,15.6433212 C24.7812062,15.6376717 25.8171429,15.6019064 25.8171429,16.7625853 L25.8171429,16.7625853 C25.8145563,16.9062854 25.751186,18.744495 24.135243,24.3990152 C24.135243,24.3990152 23.6142277,26.1257143 22.9744168,26.1257143 L22.9744168,26.1257143 L16.1761512,26.1257143 C15.7022727,26.1257143 14.4942708,25.7971778 14.4942708,24.8849904 L14.4942708,24.8849904 L14.4942708,15.6437909 C14.4942708,15.6437909 17.8577202,13.0902831 17.8577202,9.83155552 C17.952636,9.66129897 17.6924495,8.64 18.9475492,8.64 Z M12.6462596,15.6469492 C12.7262418,15.6488674 13.3261081,15.6855236 13.3261081,16.3536171 L13.3261081,16.3536171 L13.3261081,25.7332891 C13.3261081,25.7332891 13.330428,26.1256943 12.8419141,26.1256943 L12.8419141,26.1256943 L10.4885484,26.1254781 C10.4174212,26.1226677 9.91953044,26.0833225 9.91953044,25.5324901 L9.91953044,25.5324901 L9.36,16.2124009 C9.36,16.2124009 9.36862164,15.6468524 9.92815208,15.6468524 L9.92815208,15.6468524 Z" id="形状结合" fill="#FFFFFF"></path>
                    </g>
                </g>
            </g>
        </g>
    </g>
</svg>