<?xml version="1.0" encoding="UTF-8"?>
<svg width="28px" height="28px" viewBox="0 0 28 28" version="1.1" xmlns="http://www.w3.org/2000/svg" xmlns:xlink="http://www.w3.org/1999/xlink">
    <title>提案信息</title>
    <g id="提案H5" stroke="none" stroke-width="1" fill="none" fill-rule="evenodd">
        <g id="H5卡片展开" transform="translate(-32.000000, -639.000000)">
            <g id="编组-39备份" transform="translate(16.000000, 612.000000)">
                <g id="编组-33" transform="translate(16.000000, 16.000000)">
                    <g id="提案信息" transform="translate(0.000000, 11.000000)">
                        <rect id="矩形" x="0" y="0.0131500725" width="28" height="27.9868499"></rect>
                        <g id="编组-36" transform="translate(2.333333, 0.000000)" fill-rule="nonzero">
                            <path d="M12.8322135,0 L12.8322135,6.26259882 C12.8322135,7.28426437 13.1809569,8.63580045 13.9574812,9.35910349 C14.7340055,10.0824065 15.8513356,10.5365336 16.9481762,10.5365336 L16.9481762,10.5365336 L23.3332151,10.5365336 L23.3332151,20.8941264 C23.3332151,21.915792 22.8996557,22.8952648 22.1231314,23.6185679 C21.3466071,24.3388572 20.2950638,24.7457151 19.1982233,24.7457151 L19.1982233,24.7457151 L4.13499179,24.7457151 C3.03815125,24.7457151 1.98660795,24.3418709 1.21008367,23.6185679 C0.436794908,22.8952648 0,21.915792 0,20.8941264 L0,20.8941264 L0,3.86473876 C0,2.84307322 0.43355939,1.86360035 1.21008367,1.14029731 C1.98660795,0.420008032 3.03815125,0.0131500725 4.13499179,0.0131500725 L4.13499179,0.0131500725 L12.8322135,0 Z M14.5930291,0.0131500725 L23.3332151,8.77718467 L16.7360533,8.77718467 C16.1634659,8.77718467 15.5619263,8.69328338 15.1415441,8.16912028 C14.7211618,7.64495719 14.5930291,7.06410068 14.5930291,6.53306328 L14.5930291,6.53306328 L14.5930291,0.0131500725 Z" id="形状结合" fill="#015863"></path>
                            <path d="M5.35049815,19.8683438 L8.19183164,19.8683438 L8.20322096,26.6850679 C8.16948991,26.9222423 8.21100505,27.2297871 8.41079663,27.4930246 C8.65729273,27.8188136 9.05428119,27.9856176 9.59397793,27.9856176 L13.637641,28 C14.1436067,28 14.4445914,27.7967077 14.6106519,27.6246911 C14.8986632,27.3223589 14.9246101,26.9705068 14.9246101,26.8401912 L14.9246101,19.8817479 L17.6049164,19.8817479 C18.2899161,19.8817479 18.7284197,19.6549988 18.9074537,19.2093194 C19.1591392,18.5838046 18.6635523,17.9895654 18.4507872,17.7706352 C17.7657875,16.8949144 13.2713752,12.1737849 12.5854768,11.4582272 C12.2296022,11.0868889 11.8963442,11.0868889 11.5654384,11.0868889 C11.2345326,11.0868889 10.8135857,11.3034712 10.5519828,11.5437833 C10.377581,11.7039914 8.44742075,13.7820908 4.7615022,17.7780816 C4.44235461,18.0778075 3.98568814,18.6433772 4.21661607,19.2402226 C4.32559329,19.5269169 4.61360453,19.8683438 5.35049815,19.8683438 Z" id="路径" fill="#10B1B2"></path>
                        </g>
                    </g>
                </g>
            </g>
        </g>
    </g>
</svg>