<?xml version="1.0" encoding="UTF-8"?>
<svg width="44px" height="28px" viewBox="0 0 44 28" version="1.1" xmlns="http://www.w3.org/2000/svg" xmlns:xlink="http://www.w3.org/1999/xlink">
    <title>排名</title>
    <g id="页面-1" stroke="none" stroke-width="1" fill="none" fill-rule="evenodd">
        <g id="H5我的" transform="translate(-38.000000, -681.000000)">
            <g id="编组-35备份" transform="translate(16.000000, 657.000000)">
                <g id="排名" transform="translate(22.000000, 24.000000)">
                    <path d="M6.20512821,13.500578 C6.20512821,16.2077845 6.85642913,18.7594319 8.00753878,21.0006028 L0,20.9997238 L2.25259703,13.5738087 L0,6.00143212 L8.00779242,6.00005933 C6.85652481,8.2413492 6.20512821,10.7931726 6.20512821,13.500578 Z M44,6.00143212 L41.7504494,13.5738087 L44,20.9997238 L35.9924612,21.0006028 C37.1435709,18.7594319 37.7948718,16.2077845 37.7948718,13.500578 C37.7948718,10.7931726 37.1434752,8.2413492 35.9922076,6.00005933 L44,6.00143212 Z" id="形状结合" fill="#006876"></path>
                    <path d="M22,0 C29.7319865,0 36,6.2680135 36,14 C36,21.7319865 29.7319865,28 22,28 C14.2680135,28 8,21.7319865 8,14 C8,6.2680135 14.2680135,0 22,0 Z M22,2.24 C15.5051313,2.24 10.24,7.50513134 10.24,14 C10.24,20.4948687 15.5051313,25.76 22,25.76 C28.4948687,25.76 33.76,20.4948687 33.76,14 C33.76,7.50513134 28.4948687,2.24 22,2.24 Z" id="形状结合" fill="#009FB5" opacity="0.654110863"></path>
                    <circle id="椭圆形" fill="#05BBBB" fill-rule="nonzero" cx="22" cy="14" r="10"></circle>
                </g>
            </g>
        </g>
    </g>
</svg>