<?xml version="1.0" encoding="UTF-8"?>
<svg width="28px" height="28px" viewBox="0 0 28 28" version="1.1" xmlns="http://www.w3.org/2000/svg" xmlns:xlink="http://www.w3.org/1999/xlink">
    <title>支持与反对董事</title>
    <g id="提案H5" stroke="none" stroke-width="1" fill="none" fill-rule="evenodd">
        <g id="H5卡片展开" transform="translate(-32.000000, -901.000000)">
            <g id="编组-39备份" transform="translate(16.000000, 612.000000)">
                <g id="编组-33备份" transform="translate(16.000000, 278.000000)">
                    <g id="支持与反对董事" transform="translate(0.000000, 11.000000)">
                        <rect id="矩形" x="0" y="0" width="28" height="28"></rect>
                        <g id="编组-35" fill-rule="nonzero">
                            <path d="M26.7166667,17.5 L21.5833333,17.5 C23.5666667,10.8181818 20.1833333,10.5 20.1833333,10.5 C18.7833334,10.5 19.0166667,11.5606061 18.9,11.6666667 C19.0166667,14.9545455 15.1666667,17.5 15.1666667,17.5 L15.1666667,26.7272727 C15.1666667,27.6818182 16.5666667,28 17.0333334,28 L24.7333334,28 C25.4333334,28 26.0166667,26.3030303 26.0166667,26.3030303 C28,20.3636364 28,18.6666667 28,18.6666667 C28,17.3939394 26.7166667,17.5 26.7166667,17.5 Z M12.5504288,17.5 L10.051282,17.5 C9.33333333,17.5 9.33333333,18.13 9.33333333,18.13 L9.93162393,27.37 C9.93162393,28 10.6495727,28 10.6495727,28 L12.789745,28 C13.3880356,28 13.3880356,27.58 13.3880356,27.58 L13.3880356,18.235 C13.3880356,17.5 12.5504288,17.5 12.5504288,17.5 Z" id="形状备份" fill="#015863" transform="translate(18.666667, 19.250000) scale(-1, -1) translate(-18.666667, -19.250000) "></path>
                            <path d="M17.3833333,7 L12.25,7 C14.2333333,0.31818181 10.85,0 10.85,0 C9.45000002,0 9.68333333,1.06060607 9.56666668,1.16666667 C9.68333333,4.45454545 5.83333333,7 5.83333333,7 L5.83333333,16.2272727 C5.83333333,17.1818182 7.23333332,17.5 7.70000002,17.5 L15.4,17.5 C16.1,17.5 16.6833334,15.8030303 16.6833334,15.8030303 C18.6666667,9.86363636 18.6666667,8.16666667 18.6666667,8.16666667 C18.6666667,6.8939394 17.3833333,7 17.3833333,7 Z M3.24412119,7 L0.717948702,7 C0,7 0,7.63000001 0,7.63000001 L0.598290594,16.87 C0.598290594,17.5 1.31623932,17.5 1.31623932,17.5 L3.48343743,17.5 C4.08172802,17.5 4.08172802,17.08 4.08172802,17.08 L4.08172802,7.735 C4.08172802,7 3.24412119,7 3.24412119,7 Z" id="形状" fill="#10B1B2"></path>
                        </g>
                    </g>
                </g>
            </g>
        </g>
    </g>
</svg>