<?xml version="1.0" encoding="UTF-8"?>
<svg width="343px" height="32px" viewBox="0 0 343 32" version="1.1" xmlns="http://www.w3.org/2000/svg" xmlns:xlink="http://www.w3.org/1999/xlink">
    <title>异形</title>
    <g id="提案H5" stroke="none" stroke-width="1" fill="none" fill-rule="evenodd">
        <g id="H5卡片展开" transform="translate(-16.000000, -547.000000)" fill="#0D3039">
            <g id="编组-7" transform="translate(16.000000, 188.000000)">
                <g id="异形" transform="translate(0.000000, 359.000000)">
                    <path d="M343,0 L343,10.0571429 C343,22.1758482 333.038941,32 320.751351,32 L206.656303,32 C200.641801,31.9999964 195.1968,28.4423034 192.781221,22.9341986 C192.781221,22.9341986 192.781221,22.9341986 192.781221,22.9341986 C189.222898,14.820358 181.033715,9.14285714 171.5,9.14285714 C161.997954,9.14285714 153.831522,14.7827019 150.254392,22.8534223 C150.254392,22.8534223 150.254392,22.8534223 150.254392,22.8534223 C147.789609,28.4144637 142.278481,31.9999975 136.195691,32 L22.2486486,32 L22.2486486,32 C9.9610593,32 0,22.1758482 0,10.0571429 L0,0 L343,0 Z" id="路径"></path>
                    <path d="M187.663719,27.8970696 C187.663719,27.8970696 187.663719,27.8970696 187.663719,27.8970696 C185.81536,20.7932143 179.279392,15.5428571 171.500042,15.5428571 C163.722203,15.5428571 157.187237,20.791174 155.337408,27.8929286 C155.337408,27.8929286 155.337408,27.8929286 155.337408,27.8929286 C154.880758,29.6460755 155.931776,31.4374704 157.684923,31.8941211 C157.95491,31.964446 158.232766,32.0000394 158.511762,32 L184.491724,32 C186.301896,32.0000009 187.769331,30.5325661 187.769331,28.7223936 C187.769331,28.4439161 187.733841,28.1665739 187.663719,27.8970696 Z" id="半圆"></path>
                </g>
            </g>
        </g>
    </g>
</svg>