<?xml version="1.0" encoding="UTF-8"?>
<svg width="28px" height="28px" viewBox="0 0 28 28" version="1.1" xmlns="http://www.w3.org/2000/svg" xmlns:xlink="http://www.w3.org/1999/xlink">
    <title>投票信息</title>
    <g id="提案H5" stroke="none" stroke-width="1" fill="none" fill-rule="evenodd">
        <g id="H5卡片展开" transform="translate(-32.000000, -1544.000000)">
            <g id="编组-39备份" transform="translate(16.000000, 612.000000)">
                <g id="编组-33备份-2" transform="translate(16.000000, 921.000000)">
                    <g id="投票信息" transform="translate(0.000000, 11.000000)">
                        <rect id="矩形" x="0" y="0" width="28" height="28"></rect>
                        <g id="编组-11" transform="translate(1.750000, 1.750000)">
                            <path d="M19.7559161,9.29591621 C20.4239153,9.29553217 21.0480064,9.62867395 21.4194195,10.1838995 L21.4194195,10.1838995 L24.3311768,14.5366861 C24.4412446,14.7012265 24.5,14.8947335 24.5,15.0926943 L24.5,15.0926943 L24.5,22.5 C24.5,23.6045695 23.6045695,24.5 22.5,24.5 L22.5,24.5 L2,24.5 C0.8954305,24.5 8.94280938e-16,23.6045695 0,22.5 L0,22.5 L0,15.0931479 C-1.02347858e-15,14.8949042 0.0589232836,14.7011336 0.169285219,14.5364496 L0.169285219,14.5364496 L3.08125941,10.1911513 C3.45235249,9.63739981 4.07494282,9.30493141 4.74153915,9.30454817 L4.74153915,9.30454817 Z M4.59375,14.091865 L4.46908107,14.1002521 C4.0206385,14.1610885 3.675,14.5454877 3.675,15.010615 C3.675,15.5180266 4.08633839,15.929365 4.59375,15.929365 L4.59375,15.929365 L19.9178432,15.9335585 L20.0425121,15.9251714 C20.4909547,15.8643349 20.8365932,15.4799358 20.8365932,15.0148085 C20.8365932,14.5073969 20.4252548,14.0960585 19.9178432,14.0960585 L19.9178432,14.0960585 L4.59375,14.091865 Z" id="形状结合" fill="#015863"></path>
                            <path d="M14.8889349,0.131348088 C14.895094,0.136392406 14.9011927,0.141510095 14.9072297,0.146700061 L21.4219143,5.74737398 C21.8336553,6.10134766 21.8876955,6.71920849 21.5436555,7.13928528 L14.3476954,15.9248033 L8.50169537,15.9248033 L4.64154427,12.6058418 C4.22980331,12.2518681 4.17576314,11.6340073 4.51980308,11.2139305 L13.4816716,0.271384117 C13.8316067,-0.155890786 14.4616599,-0.218587052 14.8889349,0.131348088 Z" id="形状结合" fill="#10B1B2" fill-rule="nonzero"></path>
                        </g>
                    </g>
                </g>
            </g>
        </g>
    </g>
</svg>