<?xml version="1.0" encoding="UTF-8"?>
<svg width="24px" height="25px" viewBox="0 0 24 25" version="1.1" xmlns="http://www.w3.org/2000/svg" xmlns:xlink="http://www.w3.org/1999/xlink">
    <title>首页</title>
    <defs>
        <rect id="path-1" x="0" y="0" width="24" height="24"></rect>
    </defs>
    <g id="页面-1" stroke="none" stroke-width="1" fill="none" fill-rule="evenodd">
        <g id="Tab-bar" transform="translate(-85.000000, -182.000000)">
            <g id="底部栏备份-3" transform="translate(59.000000, 173.976183)">
                <g id="首页" transform="translate(26.000000, 9.000000)">
                    <polygon id="路径" points="0 24 24 24 24 0 0 0"></polygon>
                    <g id="编组-70备份-2">
                        <mask id="mask-2" fill="white">
                            <use xlink:href="#path-1"></use>
                        </mask>
                        <g id="蒙版"></g>
                        <g id="编组-70" mask="url(#mask-2)" fill="#0F8585" fill-rule="nonzero">
                            <g transform="translate(0.810880, 0.684163)" id="形状结合">
                                <path d="M13.5648896,0.74586282 L20.7461231,5.87903167 C21.7966569,6.62995661 22.4200554,7.84184803 22.4200554,9.13316887 L22.4200554,18.0885565 C22.4200554,20.8499803 20.1814791,23.0885565 17.4200554,23.0885565 L5,23.0885565 C2.23857625,23.0885565 1.2263553e-15,20.8499803 0,18.0885565 L0,9.14091874 C-6.02759747e-16,7.84527548 0.62755431,6.62988279 1.68390642,5.87967503 L8.92272827,0.738756305 C10.3133662,-0.248856957 12.177282,-0.246003556 13.5648896,0.74586282 Z M16.1182336,13.9796871 C15.645544,13.6940598 15.0308066,13.8457039 14.7451794,14.3183936 L14.7451794,14.3183936 L14.6637134,14.4401182 C14.1037252,15.2015485 12.7176261,15.7758367 11.1091203,15.7758367 C9.44327541,15.7758367 8.0127422,15.1599246 7.49414954,14.3522351 C7.1957565,13.8874986 6.57711775,13.7526505 6.11238123,14.0510436 C5.6476447,14.3494366 5.51279667,14.9680754 5.81118972,15.4328119 C6.74149044,16.8817221 8.8181841,17.7758367 11.1091203,17.7758367 C13.4434422,17.7758367 15.5535929,16.8477069 16.4569401,15.3527413 C16.7425674,14.8800516 16.5909233,14.2653143 16.1182336,13.9796871 Z"></path>
                            </g>
                        </g>
                    </g>
                </g>
            </g>
        </g>
    </g>
</svg>