<?xml version="1.0" encoding="UTF-8"?>
<svg width="36px" height="36px" viewBox="0 0 36 36" version="1.1" xmlns="http://www.w3.org/2000/svg" xmlns:xlink="http://www.w3.org/1999/xlink">
    <title>已通过</title>
    <defs>
        <path d="M0,0 L16,0 C27.045695,-2.02906125e-15 36,8.954305 36,20 L36,36 L36,36 L0,36 L0,0 Z" id="path-1"></path>
    </defs>
    <g id="提案" stroke="none" stroke-width="1" fill="none" fill-rule="evenodd">
        <g id="社区提案" transform="translate(-1524.000000, -1339.000000)">
            <g id="编组-24备份" transform="translate(360.000000, 1193.000000)">
                <g id="编组-21备份" transform="translate(0.000000, 146.000000)">
                    <g id="已通过" transform="translate(1164.000000, 0.000000)">
                        <mask id="mask-2" fill="white">
                            <use xlink:href="#path-1"></use>
                        </mask>
                        <g id="蒙版"></g>
                        <path d="M30,-24 C46.5685425,-24 60,-10.5685425 60,6 C60,22.5685425 46.5685425,36 30,36 C13.4314575,36 0,22.5685425 0,6 C0,-10.5685425 13.4314575,-24 30,-24 Z" id="路径" fill="#00AA7A" mask="url(#mask-2)"></path>
                        <polyline id="路径-2" stroke="#FFFFFF" stroke-width="4" stroke-linecap="round" stroke-linejoin="round" mask="url(#mask-2)" points="12 17.2402567 15.9026487 21.4594595 25 12.7027027"></polyline>
                    </g>
                </g>
            </g>
        </g>
    </g>
</svg>