<?xml version="1.0" encoding="UTF-8"?>
<svg width="113px" height="35px" viewBox="0 0 113 35" version="1.1" xmlns="http://www.w3.org/2000/svg" xmlns:xlink="http://www.w3.org/1999/xlink">
    <title>Logo</title>
    <g id="页面-1" stroke="none" stroke-width="1" fill="none" fill-rule="evenodd">
        <g id="Dao首页切图" transform="translate(-50.000000, -42.000000)">
            <g id="Logo" transform="translate(50.039959, 42.646341)">
                <path d="M16.7380952,0 C12.2252552,0 8.00348068,1.78292992 4.89305506,4.89374435 C1.78083904,8.0380832 0,12.255961 0,16.74 C0,21.2350007 1.79007234,25.4828851 4.89305506,28.5862556 C8.03703743,31.6988968 12.2544864,33.48 16.7380952,33.48 C21.2326643,33.48 25.4801168,31.6896621 28.5831354,28.5862556 C31.6953514,25.4419168 33.4761905,21.224039 33.4761905,16.74 C33.4761905,12.2449993 31.6861181,7.99711494 28.5831354,4.89374435 C25.439153,1.78110316 21.2217041,0 16.7380952,0 Z M16.7380952,3 C20.4208984,3 23.883179,4.46218225 26.4670798,7.02030279 C29.0067603,9.56032809 30.4761905,13.0473209 30.4761905,16.74 C30.4761905,20.4233938 29.0141495,23.8862056 26.4563125,26.4704659 C23.9166406,29.0104279 20.4301827,30.48 16.7380952,30.48 C13.0552921,30.48 9.59301146,29.0178177 7.00911064,26.4596972 C4.46943013,23.9196719 3,20.4326791 3,16.74 C3,13.0566062 4.462041,9.59379445 7.01987796,7.00953413 C9.56746397,4.46165699 13.0285009,3 16.7380952,3 Z" id="形状结合" fill="#FFFFFF" fill-rule="nonzero"></path>
                <path d="M8.35927323,21.5731338 C8.35927323,22.7655662 9.40319322,23.7195122 10.6728256,23.7195122 L10.8985381,23.7195122 L10.8421099,13.8355719 C10.8421099,13.4910915 10.9267521,13.199608 11.0960364,12.934623 C11.2653207,12.669638 11.5192472,12.4841485 11.8578159,12.3251575 C12.1963845,12.192665 12.5349532,12.139668 12.8453077,12.192665 C13.1556623,12.245662 13.4660169,12.3781545 13.7199434,12.616641 L17.8391952,16.0879444 C17.8674093,16.1144429 18.0366936,16.2469354 18.1777639,16.3794279 C18.6009747,16.7239084 18.8266871,16.9093979 18.8266871,17.4658664 C18.8266871,17.9428393 18.6291887,18.3668153 18.2906201,18.6847973 C17.9520514,19.0027793 17.5006266,19.1882688 16.9927736,19.1882688 C16.4849207,19.1882688 16.0334958,19.0027793 15.6949272,18.6847973 C15.3563585,18.3668153 15.1588601,17.9428393 15.1588601,17.4658664 C15.1588601,16.8828994 15.4127866,16.6709114 15.8642115,16.2999324 C15.9206396,16.2469354 16.2592082,15.9554519 16.4002785,15.8494579 L14.5099369,14.2595479 L14.1713683,14.5510314 C13.1556623,15.3989834 12.6195953,15.8494579 12.6195953,17.4923649 C12.6195953,18.6318003 13.0992342,19.6387433 13.8892277,20.3807013 C14.6792212,21.1226593 15.7795693,21.5731338 16.9645596,21.5731338 C18.1777639,21.5731338 19.2498979,21.1226593 20.0398914,20.3807013 C20.8298849,19.6387433 21.3095238,18.6053018 21.3095238,17.4923649 C21.3095238,15.8759564 20.7452427,15.3989834 19.7577509,14.6305269 C19.7013228,14.5775299 19.6448947,14.5245329 19.4473963,14.3655419 L15.4127866,10.8412415 C14.7920774,10.3112715 14.030298,9.96679105 13.2403045,9.86079705 C12.450311,9.75480305 11.6321034,9.83429855 10.8421099,10.178779 C10.0521164,10.496761 9.43140727,11.026731 9.00819647,11.662695 C8.58498566,12.298659 8.33105918,13.040617 8.35927323,13.8355719 L8.35927323,21.5731338 L8.35927323,21.5731338 Z" id="路径" fill="#FFFFFF"></path>
                <path d="M19.7271062,13.064068 L20.2545788,12.6134646 C20.518315,12.3749099 20.8406593,12.2423795 21.1630037,12.1893673 C21.485348,12.1363552 21.8369963,12.1893673 22.1886447,12.3218977 C22.510989,12.4544281 22.7747253,12.6664768 22.9798535,12.9315376 C23.1556777,13.1965984 23.2728938,13.4881653 23.2435897,13.8327443 L23.1849817,23.7195122 L23.4194139,23.7195122 C24.7380952,23.7195122 25.7930403,22.7652933 25.8223443,21.5725197 L25.8809524,13.8327443 C25.8809524,13.0375619 25.6465201,12.2688856 25.2069597,11.6592457 C24.7673993,11.0230998 24.0934066,10.5194843 23.3021978,10.1749053 C22.481685,9.85683229 21.6318681,9.75080797 20.8113553,9.85683229 C19.9908425,9.96285661 19.1996337,10.3074357 18.5549451,10.8375573 L18.0274725,11.2881606 L17.5,11.738764 L19.46337,13.3291288 L19.7271062,13.064068 Z" id="路径" fill="#4CA9DC"></path>
                <polygon id="路径" fill="#FFFFFF" points="92.1666667 25.9146341 81.5 25.9146341 81.5 8.35365854 92.1666667 8.35365854 92.1666667 11.6777003 85.1438923 11.6777003 85.1438923 15.3780488 91.1066253 15.3780488 91.1066253 18.5139373 85.1438923 18.5139373 85.1438923 22.5905923 92.1666667 22.5905923"></polygon>
                <path d="M66.4829932,7.62195122 L70.9421769,7.62195122 C73.2040816,7.62195122 75.2721088,8.52053915 76.7585034,10.0609756 C78.244898,11.5372272 79.2142857,13.5911425 79.2142857,15.8376123 L79.2142857,17.698973 C79.2142857,19.9454429 78.3095238,21.9993582 76.7585034,23.4756098 C75.2721088,24.9518614 73.2040816,25.9146341 70.9421769,25.9146341 L64.7380952,25.9146341 L64.7380952,7.62195122 L66.4829932,7.62195122 L66.4829932,7.62195122 Z M70.9421769,11.1521181 L68.6802721,11.1521181 L68.6802721,22.3844673 L70.9421769,22.3844673 C72.2346939,22.3844673 73.3979592,21.8709884 74.2380952,21.0365854 C75.0782313,20.2021823 75.5952381,19.0468549 75.5952381,17.7631579 L75.5952381,15.9017972 C75.5952381,14.6181001 75.0782313,13.4627728 74.2380952,12.6283697 C73.462585,11.7297818 72.2346939,11.1521181 70.9421769,11.1521181 Z" id="形状" fill="#FFFFFF"></path>
                <path d="M42.6428571,25.8508966 L42.6428571,9.47034078 C42.6428571,8.45053964 43.4937817,7.62195122 44.5410735,7.62195122 C45.1956308,7.62195122 45.7847324,7.94063908 46.1120111,8.51427722 L52.1993945,16.9276366 L52.1993945,16.9276366 L54.4903453,20.1145152 L53.7703322,21.1343163 C53.6394207,21.325529 53.5085092,21.4530042 53.312142,21.5804793 C52.4612175,22.1541174 51.2830142,21.9629047 50.6939126,21.1343163 L46.4392898,15.2067222 L46.4392898,25.787159 L42.6428571,25.787159 L42.6428571,25.8508966 Z M52.8539519,16.0353106 L55.1449026,19.2221892 L57.9594993,15.3341973 L57.9594993,25.9146341 L61.6904762,25.9146341 L61.6904762,9.53407835 L61.6904762,9.53407835 C61.6904762,8.96044021 61.4286532,8.38680207 60.9050074,8.06811422 C60.0540828,7.49447608 58.8758796,7.68568879 58.2867779,8.51427722 L52.8539519,16.0353106 Z" id="形状" fill="#FFFFFF"></path>
                <path d="M99.5952381,8.35365854 L101.212821,10.4728997 L105.661172,16.2696477 C105.998168,16.6436314 105.998168,17.204607 105.661172,17.5785908 L103.97619,19.8224932 L103.97619,19.8224932 L99.8648352,25.1829268 L95.4164835,25.1829268 L101.752015,16.9552846 L95.2142857,8.41598916 L95.2142857,8.41598916 L99.5952381,8.41598916 L99.5952381,8.35365854 Z M106.80696,17.7655827 L104.582784,20.6327913 L108.087546,25.1829268 L112.535897,25.1829268 L109.907326,21.7547425 L109.907326,21.7547425 L106.80696,17.7655827 L106.80696,17.7655827 Z M104.582784,13.2777778 L106.80696,16.1449864 L110.042125,11.9065041 L110.042125,11.9065041 L112.738095,8.41598916 L112.738095,8.41598916 L108.357143,8.41598916 L104.582784,13.2777778 Z" id="形状" fill="#4CA9DC"></path>
            </g>
        </g>
    </g>
</svg>