<?xml version="1.0" encoding="UTF-8"?>
<svg width="235px" height="34px" viewBox="0 0 235 34" version="1.1" xmlns="http://www.w3.org/2000/svg" xmlns:xlink="http://www.w3.org/1999/xlink">
    <title>Logo</title>
    <g id="页面-1" stroke="none" stroke-width="1" fill="none" fill-rule="evenodd">
        <g id="Dao首页切图" transform="translate(-50.000000, -43.000000)">
            <g id="Logo" transform="translate(50.000000, 43.000000)">
                <g id="编组-35" fill="#FFFFFF" fill-rule="nonzero">
                    <path d="M16.7380952,0 C12.2252552,0 8.00348068,1.78292992 4.89305506,4.89374435 C1.78083904,8.0380832 0,12.255961 0,16.74 C0,21.2350007 1.79007234,25.4828851 4.89305506,28.5862556 C8.03703743,31.6988968 12.2544864,33.48 16.7380952,33.48 C21.2326643,33.48 25.4801168,31.6896621 28.5831354,28.5862556 C31.6953514,25.4419168 33.4761905,21.224039 33.4761905,16.74 C33.4761905,12.2449993 31.6861181,7.99711494 28.5831354,4.89374435 C25.439153,1.78110316 21.2217041,0 16.7380952,0 Z M16.7380952,3 C20.4208984,3 23.883179,4.46218225 26.4670798,7.02030279 C29.0067603,9.56032809 30.4761905,13.0473209 30.4761905,16.74 C30.4761905,20.4233938 29.0141495,23.8862056 26.4563125,26.4704659 C23.9166406,29.0104279 20.4301827,30.48 16.7380952,30.48 C13.0552921,30.48 9.59301146,29.0178177 7.00911064,26.4596972 C4.46943013,23.9196719 3,20.4326791 3,16.74 C3,13.0566062 4.462041,9.59379445 7.01987796,7.00953413 C9.56746397,4.46165699 13.0285009,3 16.7380952,3 Z" id="形状结合"></path>
                    <path d="M54.35,27 L54.35,13.68 L59.24,24.9 L62.84,24.9 L67.73,13.68 L67.76,27 L72.62,27 L72.62,5.97 L66.62,5.97 L61.04,18.24 L55.46,5.97 L49.46,5.97 L49.46,27 L54.35,27 Z M85.55,27 C92.36,27 96.95,22.74 96.95,16.47 C96.95,10.23 92.42,5.97 85.76,5.97 L76.7,5.97 L76.7,27 L85.55,27 Z M85.91,22.56 L82.19,22.56 L82.19,10.44 L85.64,10.44 C88.97,10.44 91.34,12.9 91.34,16.53 C91.34,20.13 89.09,22.56 85.91,22.56 Z M116.57,27 L116.57,22.62 L105.17,22.62 L105.17,18.66 L115.19,18.63 L115.19,14.28 L105.17,14.28 L105.17,10.35 L116.27,10.35 L116.27,5.97 L99.68,5.97 L99.68,27 L116.57,27 Z M124.43,27 L128.81,20.49 L133.28,27 L139.85,27 L132.32,16.02 L139.25,5.97 L132.77,5.97 L128.81,11.94 L124.88,5.97 L118.49,5.97 L125.48,16.29 L118.01,27 L124.43,27 Z M152.66,20.88 C154.13,20.88 155.18,19.83 155.18,18.33 C155.18,16.83 154.13,15.78 152.66,15.78 C151.19,15.78 150.14,16.83 150.14,18.33 C150.14,19.83 151.19,20.88 152.66,20.88 Z M176.18,27 C182.99,27 187.58,22.74 187.58,16.47 C187.58,10.23 183.05,5.97 176.39,5.97 L167.33,5.97 L167.33,27 L176.18,27 Z M176.54,22.56 L172.82,22.56 L172.82,10.44 L176.27,10.44 C179.6,10.44 181.97,12.9 181.97,16.53 C181.97,20.13 179.72,22.56 176.54,22.56 Z M193.76,27 L195.23,23.28 L204.32,23.28 L205.76,27 L211.61,27 L202.79,5.97 L197.15,5.97 L188.12,27 L193.76,27 Z M202.7,19.08 L196.88,19.08 L199.82,11.58 L202.7,19.08 Z M223.52,27.24 C230.03,27.24 234.89,22.62 234.89,16.47 C234.89,10.38 230.03,5.82 223.52,5.82 C217.01,5.82 212.15,10.35 212.15,16.47 C212.15,22.62 217.01,27.24 223.52,27.24 Z M223.58,22.56 C220.46,22.56 217.79,19.92 217.79,16.5 C217.79,13.08 220.43,10.5 223.58,10.5 C226.73,10.5 229.25,13.08 229.25,16.5 C229.25,19.92 226.73,22.56 223.58,22.56 Z" id="MDEX·DAO"></path>
                </g>
                <path d="M8.35927323,20.5731338 C8.35927323,21.7655662 9.40319322,22.7195122 10.6728256,22.7195122 L10.8985381,22.7195122 L10.8421099,12.8355719 C10.8421099,12.4910915 10.9267521,12.199608 11.0960364,11.934623 C11.2653207,11.669638 11.5192472,11.4841485 11.8578159,11.3251575 C12.1963845,11.192665 12.5349532,11.139668 12.8453077,11.192665 C13.1556623,11.245662 13.4660169,11.3781545 13.7199434,11.616641 L17.8391952,15.0879444 C17.8674093,15.1144429 18.0366936,15.2469354 18.1777639,15.3794279 C18.6009747,15.7239084 18.8266871,15.9093979 18.8266871,16.4658664 C18.8266871,16.9428393 18.6291887,17.3668153 18.2906201,17.6847973 C17.9520514,18.0027793 17.5006266,18.1882688 16.9927736,18.1882688 C16.4849207,18.1882688 16.0334958,18.0027793 15.6949272,17.6847973 C15.3563585,17.3668153 15.1588601,16.9428393 15.1588601,16.4658664 C15.1588601,15.8828994 15.4127866,15.6709114 15.8642115,15.2999324 C15.9206396,15.2469354 16.2592082,14.9554519 16.4002785,14.8494579 L14.5099369,13.2595479 L14.1713683,13.5510314 C13.1556623,14.3989834 12.6195953,14.8494579 12.6195953,16.4923649 C12.6195953,17.6318003 13.0992342,18.6387433 13.8892277,19.3807013 C14.6792212,20.1226593 15.7795693,20.5731338 16.9645596,20.5731338 C18.1777639,20.5731338 19.2498979,20.1226593 20.0398914,19.3807013 C20.8298849,18.6387433 21.3095238,17.6053018 21.3095238,16.4923649 C21.3095238,14.8759564 20.7452427,14.3989834 19.7577509,13.6305269 C19.7013228,13.5775299 19.6448947,13.5245329 19.4473963,13.3655419 L15.4127866,9.84124153 C14.7920774,9.31127154 14.030298,8.96679105 13.2403045,8.86079705 C12.450311,8.75480305 11.6321034,8.83429855 10.8421099,9.17877904 C10.0521164,9.49676103 9.43140727,10.026731 9.00819647,10.662695 C8.58498566,11.298659 8.33105918,12.040617 8.35927323,12.8355719 L8.35927323,20.5731338 L8.35927323,20.5731338 Z" id="路径" fill="#FFFFFF"></path>
                <path d="M19.7271062,12.064068 L20.2545788,11.6134646 C20.518315,11.3749099 20.8406593,11.2423795 21.1630037,11.1893673 C21.485348,11.1363552 21.8369963,11.1893673 22.1886447,11.3218977 C22.510989,11.4544281 22.7747253,11.6664768 22.9798535,11.9315376 C23.1556777,12.1965984 23.2728938,12.4881653 23.2435897,12.8327443 L23.1849817,22.7195122 L23.4194139,22.7195122 C24.7380952,22.7195122 25.7930403,21.7652933 25.8223443,20.5725197 L25.8809524,12.8327443 C25.8809524,12.0375619 25.6465201,11.2688856 25.2069597,10.6592457 C24.7673993,10.0230998 24.0934066,9.51948429 23.3021978,9.17490525 C22.481685,8.85683229 21.6318681,8.75080797 20.8113553,8.85683229 C19.9908425,8.96285661 19.1996337,9.30743565 18.5549451,9.83755726 L18.0274725,10.2881606 L17.5,10.738764 L19.46337,12.3291288 L19.7271062,12.064068 Z" id="路径" fill="#4CA9DC"></path>
            </g>
        </g>
    </g>
</svg>