<?xml version="1.0" encoding="UTF-8"?>
<svg width="24px" height="25px" viewBox="0 0 24 25" version="1.1" xmlns="http://www.w3.org/2000/svg" xmlns:xlink="http://www.w3.org/1999/xlink">
    <title>我的</title>
    <g id="页面-1" stroke="none" stroke-width="1" fill="none" fill-rule="evenodd">
        <g id="Tab-bar" transform="translate(-385.000000, -65.000000)">
            <g id="底部栏备份-2" transform="translate(59.000000, 58.976183)">
                <g id="2备份-2" transform="translate(300.000000, 0.000000)">
                    <g id="我的" transform="translate(26.000000, 7.000000)">
                        <polygon id="路径" points="0 24 24 24 24 0 0 0"></polygon>
                        <path d="M12.4739229,1 C15.446712,1 18.3151927,2.15261959 20.4535147,4.19589976 L20.4535147,4.19589976 L20.6099773,4.35307518 C21.6530612,5.40091116 22.4875283,6.65831434 23.0612245,8.02050113 C23.6349206,9.48747153 23.9478458,10.9544419 24,12.4738041 C24,15.5125285 22.8526077,18.3416857 20.7664399,20.4897494 L20.7664399,20.4897494 L20.6099773,20.6469248 C19.5668934,21.6947608 18.3151928,22.5330296 16.9591837,23.1093394 C15.4988662,23.6856492 14.0385488,24 12.4739229,24 L12.4739229,24 L4.138322,24 C3.58603725,24 3.138322,23.5522847 3.138322,23 L3.138322,23 L3.138322,19.1799544 L3.0340136,19.0751708 C2.40816327,18.1321184 1.93877551,17.1366743 1.57369614,16.0888383 C1.20861678,14.9362187 1,13.7835991 1,12.5261959 C1,9.48747153 2.19954649,6.60592256 4.33786849,4.40546697 L4.33786849,4.40546697 L4.33786849,4.35307518 C6.52834467,2.2050114 9.39682539,1 12.4739229,1 Z M8.32251915,13.5039428 C8.05519512,13.0244645 7.45931862,12.8579242 6.99159175,13.1319646 C6.52386488,13.406005 6.36140628,14.0168526 6.62873031,14.4963309 C7.82659813,16.6448531 10.0559362,18 12.5151025,18 C14.9491485,18 17.1591387,16.6724868 18.3661959,14.5588501 C18.6383732,14.0822498 18.4821248,13.469702 18.0172053,13.1906865 C17.5522858,12.9116709 16.9547509,13.0718449 16.6825736,13.5484453 C15.8220399,15.0552966 14.249222,16.0000684 12.5151025,16.0000684 C10.7631299,16.0000684 9.17645157,15.0355748 8.32251915,13.5039428 Z" id="形状结合备份-6" fill="#5C707C"></path>
                    </g>
                </g>
            </g>
        </g>
    </g>
</svg>