<?xml version="1.0" encoding="UTF-8"?>
<svg width="36px" height="36px" viewBox="0 0 36 36" version="1.1" xmlns="http://www.w3.org/2000/svg" xmlns:xlink="http://www.w3.org/1999/xlink">
    <title>更多</title>
    <g id="页面-1" stroke="none" stroke-width="1" fill="none" fill-rule="evenodd">
        <g id="Dao首页切图" transform="translate(-1834.000000, -42.000000)">
            <g id="更多" transform="translate(1834.000000, 42.000000)">
                <rect id="矩形" x="0" y="0" width="36" height="36"></rect>
                <path d="M18,0.5 C22.8324916,0.5 27.2074916,2.45875422 30.3743687,5.62563133 C33.5412458,8.79250844 35.5,13.1675084 35.5,18 C35.5,22.8324916 33.5412458,27.2074916 30.3743687,30.3743687 C27.2074916,33.5412458 22.8324916,35.5 18,35.5 C13.1675084,35.5 8.79250844,33.5412458 5.62563133,30.3743687 C2.45875422,27.2074916 0.5,22.8324916 0.5,18 C0.5,13.1675084 2.45875422,8.79250844 5.62563133,5.62563133 C8.79250844,2.45875422 13.1675084,0.5 18,0.5 Z" id="路径" stroke="#FFFFFF" fill-rule="nonzero"></path>
                <g id="编组-2" transform="translate(7.000000, 16.000000)" fill="#FFFFFF" fill-rule="nonzero">
                    <path d="M20,4 C18.8954305,4 18,3.1045695 18,2 C18,0.8954305 18.8954305,0 20,0 C21.1045695,0 22,0.8954305 22,2 C22,3.1045695 21.1045695,4 20,4 Z" id="路径"></path>
                    <path d="M11,4 C9.8954305,4 9,3.1045695 9,2 C9,0.8954305 9.8954305,0 11,0 C12.1045695,0 13,0.8954305 13,2 C13,3.1045695 12.1045695,4 11,4 Z" id="路径"></path>
                    <path d="M2,4 C0.8954305,4 0,3.1045695 0,2 C0,0.8954305 0.8954305,0 2,0 C3.1045695,0 4,0.8954305 4,2 C4,3.1045695 3.1045695,4 2,4 Z" id="路径"></path>
                </g>
            </g>
        </g>
    </g>
</svg>