<?xml version="1.0" encoding="UTF-8"?>
<svg width="48px" height="48px" viewBox="0 0 48 48" version="1.1" xmlns="http://www.w3.org/2000/svg" xmlns:xlink="http://www.w3.org/1999/xlink">
    <title>节点质押凭证总数</title>
    <g id="页面-1" stroke="none" stroke-width="1" fill="none" fill-rule="evenodd">
        <g id="节点竞选" transform="translate(-934.000000, -449.000000)">
            <g id="编组-17" transform="translate(360.000000, 393.000000)">
                <g id="编组-13" transform="translate(574.000000, 45.000000)">
                    <g id="节点质押凭证总数" transform="translate(0.000000, 11.000000)">
                        <path d="M13.4190378,1.41176471 L13.43333,1.40986039 C20.4563979,0.474094105 27.5726089,0.474734471 34.5955084,1.41176471 C40.8399537,2.24492972 45.7506752,7.1606304 46.5775115,13.4059169 L46.6077892,13.6346109 C47.5318405,20.6141851 47.5252651,27.6855428 46.5882353,34.6633865 C45.7546992,40.8705366 40.8701815,45.7520483 34.6625194,46.5817632 L34.6140974,46.5882353 C27.6035364,47.5252655 20.4996089,47.5275386 13.4884496,46.5949952 L13.3301483,46.5739397 C7.12752141,45.7489379 2.24520597,40.8732616 1.41176471,34.671763 C0.47473497,27.6994798 0.467432302,20.6336573 1.39004806,13.6594521 L1.4216783,13.4203539 C2.24894294,7.16692365 7.16638418,2.24487958 13.4190378,1.41176471 Z" id="矩形" fill="#109899"></path>
                        <path d="M33,32 L33,34 L14,34 L14,32 L33,32 Z M20,22 L20,30 L15,30 L15,22 L20,22 Z M26,18 L26,30 L21,30 L21,18 L26,18 Z M32,14 L32,30 L27,30 L27,14 L32,14 Z" id="形状结合" fill="#FFFFFF"></path>
                    </g>
                </g>
            </g>
        </g>
    </g>
</svg>