<?xml version="1.0" encoding="UTF-8"?>
<svg width="36px" height="36px" viewBox="0 0 36 36" version="1.1" xmlns="http://www.w3.org/2000/svg" xmlns:xlink="http://www.w3.org/1999/xlink">
    <title>反对</title>
    <g id="提案" stroke="none" stroke-width="1" fill="none" fill-rule="evenodd">
        <g id="社区提案" transform="translate(-1334.000000, -949.000000)" fill-rule="nonzero">
            <g id="编组-24" transform="translate(360.000000, 604.000000)">
                <g id="编组-21备份-2" transform="translate(0.000000, 299.000000)">
                    <g id="编组-31" transform="translate(754.000000, 46.000000)">
                        <g id="编组-29" transform="translate(220.000000, 0.000000)">
                            <circle id="蒙版" fill="#046B78" cx="18" cy="18" r="18"></circle>
                            <path d="M19.6675492,10.8 C19.6675492,10.8 19.6881135,10.8023634 19.7247999,10.8105525 L19.7762781,10.8233974 C20.2943378,10.9654758 22.4242529,11.9177363 20.8755511,17.8037909 L20.8755511,17.8037909 L25.4070301,17.8033212 C25.5012062,17.7976717 26.5371429,17.7619064 26.5371429,18.9225853 L26.5371429,18.9225853 C26.5345563,19.0662854 26.471186,20.904495 24.855243,26.5590152 C24.855243,26.5590152 24.3342277,28.2857143 23.6944168,28.2857143 L23.6944168,28.2857143 L16.8961512,28.2857143 C16.4222727,28.2857143 15.2142708,27.9571778 15.2142708,27.0449904 L15.2142708,27.0449904 L15.2142708,17.8037909 C15.2142708,17.8037909 18.5777202,15.2502831 18.5777202,11.9915555 C18.672636,11.821299 18.4124495,10.8 19.6675492,10.8 Z M13.3662596,17.8069492 C13.4462418,17.8088674 14.0461081,17.8455236 14.0461081,18.5136171 L14.0461081,18.5136171 L14.0461081,27.8932891 C14.0461081,27.8932891 14.050428,28.2856943 13.5619141,28.2856943 L13.5619141,28.2856943 L11.2085484,28.2854781 C11.1374212,28.2826677 10.6395304,28.2433225 10.6395304,27.6924901 L10.6395304,27.6924901 L10.08,18.3724009 C10.08,18.3724009 10.0886216,17.8068524 10.6481521,17.8068524 L10.6481521,17.8068524 Z" id="形状结合" fill="#FFFFFF" transform="translate(18.308571, 19.542857) scale(1, -1) translate(-18.308571, -19.542857) "></path>
                        </g>
                    </g>
                </g>
            </g>
        </g>
    </g>
</svg>