<?xml version="1.0" encoding="UTF-8"?>
<svg width="48px" height="48px" viewBox="0 0 48 48" version="1.1" xmlns="http://www.w3.org/2000/svg" xmlns:xlink="http://www.w3.org/1999/xlink">
    <title>质押数量</title>
    <g id="页面-1" stroke="none" stroke-width="1" fill="none" fill-rule="evenodd">
        <g id="我的" transform="translate(-463.000000, -449.000000)">
            <g id="编组-17" transform="translate(360.000000, 393.000000)">
                <g id="编组-24" transform="translate(103.000000, 45.000000)">
                    <g id="质押数量" transform="translate(0.000000, 11.000000)">
                        <path d="M13.4190378,1.41176471 L13.43333,1.40986039 C20.4563979,0.474094105 27.5726089,0.474734471 34.5955084,1.41176471 C40.8399537,2.24492972 45.7506752,7.1606304 46.5775115,13.4059169 L46.6077892,13.6346109 C47.5318405,20.6141851 47.5252651,27.6855428 46.5882353,34.6633865 C45.7546992,40.8705366 40.8701815,45.7520483 34.6625194,46.5817632 L34.6140974,46.5882353 C27.6035364,47.5252655 20.4996089,47.5275386 13.4884496,46.5949952 L13.3301483,46.5739397 C7.12752141,45.7489379 2.24520597,40.8732616 1.41176471,34.671763 C0.47473497,27.6994798 0.467432302,20.6336573 1.39004806,13.6594521 L1.4216783,13.4203539 C2.24894294,7.16692365 7.16638418,2.24487958 13.4190378,1.41176471 Z" id="矩形" fill="#109899"></path>
                        <g id="编组-18" transform="translate(12.000000, 12.000000)">
                            <path d="M8.95587983,0 C13.9018556,0 17.9117597,4.00990406 17.9117597,8.95587983 C17.9117597,9.25370644 17.8972199,9.54813889 17.8688115,9.83850605 L17.5105647,9.88170868 C16.2361303,10.0541348 15.1038429,10.4601071 14.2414272,11.0110393 C13.5990881,11.4172821 13.1487526,11.8921597 12.8659838,12.3633272 L12.8659838,12.3633272 L12.8315105,12.4175857 L12.7263449,12.6174609 C12.6844532,12.7009355 12.6495435,12.78812 12.6198702,12.8697396 C12.6093973,12.8919995 12.6076518,12.9142593 12.6024154,12.9365192 C12.5779786,13.0107188 12.5657602,13.0849185 12.5483053,13.1572631 L12.5483053,13.1572631 L12.5320217,13.2683183 L12.5178753,13.3090879 L12.5181703,17.1752153 C11.4264248,17.6490643 10.2218141,17.9117597 8.95587983,17.9117597 C4.00990406,17.9117597 0,13.9018556 0,8.95587983 C0,4.00990406 4.00990406,0 8.95587983,0 Z" id="形状结合" fill="#FFFFFF" fill-rule="nonzero"></path>
                            <g id="编组-19" transform="translate(5.260791, 4.500000)" fill="#109899" fill-rule="nonzero">
                                <path d="M0.237231166,4.33095934 C0.53009628,4.0368347 0.991869789,4.01326723 1.31179401,4.26092372 L1.38864003,4.32848873 L3.70567272,6.63634168 L6.06824481,4.32374872 C6.36478591,4.03333065 6.8268193,4.01557268 7.14360349,4.2672332 L7.21959369,4.33575934 C7.51001175,4.63230044 7.52776973,5.09433383 7.2761092,5.41111802 L7.20758306,5.48710822 L4.27158306,8.36248517 C3.9776758,8.65032379 3.52056777,8.67066515 3.20359341,8.42476592 L3.12744481,8.35774516 L0.239701775,5.48236821 C-0.0789332442,5.16509767 -0.0800393734,4.64959436 0.237231166,4.33095934 Z" id="路径-24"></path>
                                <path d="M3.72965988,0 C4.14719177,0.00186337366 4.48991858,0.317691955 4.53514968,0.722815602 L4.54020528,0.817788528 L4.50925136,7.78442288 C4.50725349,8.23407261 4.14112077,8.59696615 3.69147104,8.59497649 C3.27393915,8.59311312 2.93121234,8.27728453 2.88598124,7.87216089 L2.88092565,7.77718796 L2.91187956,0.810553605 C2.91387743,0.360903876 3.28001015,-0.00198965892 3.72965988,0 Z" id="路径-25"></path>
                            </g>
                            <path d="M23.4770657,20.1742807 C23.8388797,20.5813214 24.0098934,20.9940156 23.99576,21.3487629 C24.0155467,21.9155106 23.5576258,22.6617521 22.599384,23.2341532 C21.6552755,23.8037276 20.3041263,24.1740216 18.8059901,24.171195 C17.3106806,24.1740216 15.9567046,23.8037276 15.0125962,23.2341532 C14.057181,22.6617521 13.5978468,21.9155106 13.6176335,21.3487629 C13.6105668,20.9940156 13.7759271,20.5813214 14.1363278,20.1742807 C14.3059281,20.3099609 14.4811818,20.4343345 14.6705688,20.5488147 C15.7560109,21.2017759 17.2046804,21.5862034 18.8059901,21.5862034 C20.4072998,21.5862034 21.8616226,21.2017759 22.944238,20.5488147 C23.133625,20.4343345 23.3117054,20.3099609 23.4770657,20.1742807 Z M23.478479,16.4840603 C23.6183993,16.6465939 23.7201595,16.8020609 23.806373,16.9561145 C23.819093,16.9872079 23.836053,17.016888 23.8473597,17.0437413 C23.8727998,17.0903814 23.8911731,17.1398482 23.9081332,17.193555 C23.9208532,17.231715 23.9349865,17.2712884 23.9462932,17.3122752 C23.9575999,17.3532619 23.9717333,17.3857687 23.9773866,17.4211021 C23.99152,17.5129689 24,17.589289 24,17.6627825 C24,17.727796 23.9971733,17.7913961 23.9858666,17.8549962 C23.98304,17.891743 23.97456,17.921423 23.9660799,17.9511031 C23.9575999,17.9850231 23.9491199,18.0231832 23.9378132,18.0556899 C23.9236799,18.09385 23.9109598,18.1447301 23.8939998,18.1828902 C23.8883465,18.1998502 23.8742131,18.2238769 23.8657331,18.2436636 C23.672106,18.6888645 23.2537586,19.1524387 22.599384,19.5481728 C21.6566889,20.1205739 20.3055396,20.4866279 18.8074034,20.4866279 C17.3120939,20.4866279 15.958118,20.1205739 15.0140095,19.5481728 C14.242328,19.0888386 13.8027805,18.5121975 13.6671003,18.0118765 C13.6614469,17.9779565 13.6515536,17.9553431 13.6473136,17.9313164 C13.6402469,17.900223 13.6345935,17.8705429 13.6317669,17.8436895 C13.6232868,17.7829161 13.6162202,17.715076 13.6190468,17.6613692 C13.6119802,17.3094485 13.7773405,16.8925144 14.1377412,16.4840603 C14.3073415,16.6225672 14.4825952,16.7412874 14.6719822,16.8585943 C14.8217958,16.9532878 14.9772628,17.0366747 15.1454497,17.1144081 C15.1624098,17.1243015 15.1807832,17.1313682 15.2005699,17.1356082 C15.3532101,17.2161683 15.5100904,17.2797685 15.6712108,17.3433686 C15.6825174,17.3461952 15.6938241,17.3546753 15.7008908,17.3546753 C16.0556382,17.4889422 16.4386522,17.6020091 16.8357996,17.6853959 C17.4562542,17.8196628 18.1162821,17.900223 18.8102301,17.900223 C19.5861516,17.900223 20.3267396,17.8012895 21.0037276,17.6345158 C21.1733279,17.5949424 21.3358616,17.546889 21.4955685,17.4988355 C21.5111152,17.4931822 21.5238353,17.4931822 21.539382,17.4875289 C21.6835422,17.4380621 21.8262892,17.3857687 21.9676228,17.3363019 C21.9902362,17.3235819 22.0199162,17.3179285 22.0425296,17.3009685 C22.1669032,17.2543284 22.2842101,17.1992083 22.4029303,17.1440882 C22.4410904,17.1228882 22.4778371,17.1144081 22.5131705,17.0932081 C22.6643974,17.0197146 22.8071444,16.9433945 22.9428246,16.8585943 C23.0389315,16.8020609 23.133625,16.7342207 23.2212518,16.680514 L23.2212518,16.680514 C23.3117054,16.6169139 23.3936788,16.5504871 23.478479,16.4840603 Z M18.8102301,11.1444767 C20.3041263,11.1444767 21.6552755,11.5161841 22.599384,12.0914119 C23.125145,12.4009325 23.4968524,12.7726398 23.7229861,13.1344539 L23.7229861,13.1344539 C23.7258128,13.1372805 23.7258128,13.1386939 23.7300528,13.1443472 C23.7752796,13.210774 23.814853,13.2828542 23.8473597,13.3521076 C23.8812798,13.4213611 23.9109598,13.4976812 23.9307465,13.5655214 C23.9335732,13.568348 23.9335732,13.5711747 23.9363999,13.576828 C23.9547732,13.6390148 23.97456,13.7096816 23.9844533,13.7732818 C23.99576,13.8425352 23.9985867,13.9075487 23.9985867,13.9683221 C23.9985867,14.0375756 23.99576,14.1025891 23.9816266,14.1690158 C23.9788,14.1986959 23.9703199,14.2312026 23.9646666,14.258056 C23.9575999,14.2976294 23.9491199,14.3315495 23.9349865,14.3725362 C23.9250932,14.405043 23.9137865,14.438963 23.9024798,14.4771231 C23.8996531,14.4813631 23.8996531,14.4813631 23.8996531,14.4841898 L23.8996531,14.4841898 C23.8897598,14.5166965 23.8756264,14.5421366 23.8614931,14.5689899 C23.8417064,14.6099767 23.823333,14.6552034 23.8007196,14.6976035 C23.7908263,14.7188036 23.7766929,14.7371769 23.7625595,14.7569636 C23.7272261,14.8120837 23.7017861,14.8657905 23.6607994,14.922324 C23.6085059,14.9986441 23.5463191,15.0763776 23.4798923,15.1470444 C23.2608253,15.3972049 22.965438,15.6402987 22.6007973,15.8579524 C21.6595155,16.4289402 20.3069529,16.7949942 18.8130568,16.7949942 C18.5049495,16.7949942 18.2138023,16.7780342 17.9212417,16.7483541 C17.876015,16.7412874 17.8265482,16.7384608 17.7813215,16.7342207 C17.6866279,16.7243274 17.5933478,16.7087807 17.5000676,16.6946473 C17.4294008,16.6861673 17.3559073,16.6791006 17.2866538,16.6621406 C17.2060937,16.6480072 17.1255335,16.6324606 17.0421467,16.6155005 C16.9601732,16.5985405 16.8824397,16.5801671 16.8103596,16.5632071 C16.7354528,16.5462471 16.6619593,16.5278737 16.5898792,16.508087 C16.509319,16.4854736 16.4315855,16.4614469 16.3496121,16.4388335 C16.2860119,16.4218735 16.2224118,16.4006734 16.1588117,16.3752334 C16.0754249,16.3497933 15.9948647,16.3116333 15.9157179,16.2890199 C15.8577711,16.2664065 15.8040643,16.2437931 15.7503576,16.2268331 C15.6627307,16.1872597 15.5779306,16.146273 15.4945438,16.1095262 C15.453557,16.0883262 15.4097436,16.0727795 15.3673435,16.0487528 C15.2486233,15.9893927 15.125663,15.9243792 15.0154228,15.8579524 C14.9942228,15.8452324 14.9786761,15.831099 14.9588894,15.8212057 C14.3525682,15.4438449 13.9639008,15.0057108 13.7660338,14.58595 C13.7646204,14.5788833 13.7561404,14.5689899 13.7533138,14.5605099 C13.7222204,14.4898431 13.695367,14.422003 13.6755803,14.3541629 C13.6642736,14.3131761 13.6515536,14.270776 13.6430735,14.232616 C13.6402469,14.2100026 13.6374202,14.1859759 13.6317669,14.1690158 C13.6232868,14.0997624 13.6148068,14.0375756 13.6190468,13.9711488 C13.6148068,13.908962 13.6232868,13.8439486 13.6345935,13.7789351 C13.6374202,13.7605617 13.6388335,13.7436017 13.6416602,13.7252283 C13.6557936,13.6701082 13.6656869,13.6135748 13.6854736,13.5570413 C13.6897136,13.5400813 13.691127,13.5231213 13.699607,13.5061612 C13.7236337,13.4439745 13.7519004,13.3775477 13.7858205,13.3139475 C13.8027805,13.2757875 13.8268072,13.2418674 13.8451806,13.2051207 C13.8621406,13.176854 13.8791007,13.1457606 13.8988874,13.1203205 C14.1278478,12.7613332 14.4924885,12.3995191 15.0125962,12.0899985 C15.7743843,11.6320777 16.7962262,11.305597 17.9438551,11.1981835 C17.9876685,11.1939435 18.0286553,11.1868768 18.0710553,11.1826368 C18.3127358,11.1614368 18.5558296,11.1444767 18.8102301,11.1444767 Z" id="形状结合" fill="#FFFFFF"></path>
                        </g>
                    </g>
                </g>
            </g>
        </g>
    </g>
</svg>