<?xml version="1.0" encoding="UTF-8"?>
<svg width="20px" height="20px" viewBox="0 0 20 20" version="1.1" xmlns="http://www.w3.org/2000/svg" xmlns:xlink="http://www.w3.org/1999/xlink">
    <title>进行中</title>
    <g id="提案" stroke="none" stroke-width="1" fill="none" fill-rule="evenodd">
        <g id="我的-提案详情" transform="translate(-548.000000, -332.000000)">
            <g id="编组-7" transform="translate(360.000000, 159.000000)">
                <g id="编组-7备份-4" transform="translate(176.000000, 165.000000)">
                    <g id="进行中" transform="translate(12.000000, 8.000000)">
                        <rect id="矩形" x="0" y="0" width="20" height="20"></rect>
                        <path d="M10,0 C4.47777778,0 0,4.47777778 0,10 C0,15.5222222 4.47777778,20 10,20 C15.5222222,20 20,15.5222222 20,10 C20,4.47777778 15.5222222,0 10,0 Z M6,10 C6.55228475,10 7,10.4477153 7,11 L7,14 C7,14.5522847 6.55228475,15 6,15 C5.44771525,15 5,14.5522847 5,14 L5,11 C5,10.4477153 5.44771525,10 6,10 Z M10,5 C10.5522847,5 11,5.44771525 11,6 L11,14 C11,14.5522847 10.5522847,15 10,15 C9.44771525,15 9,14.5522847 9,14 L9,6 C9,5.44771525 9.44771525,5 10,5 Z M14,8 C14.5522847,8 15,8.44771525 15,9 L15,14 C15,14.5522847 14.5522847,15 14,15 C13.4477153,15 13,14.5522847 13,14 L13,9 C13,8.44771525 13.4477153,8 14,8 Z" id="形状" fill="#0DD6BA" fill-rule="nonzero"></path>
                    </g>
                </g>
            </g>
        </g>
    </g>
</svg>