<?xml version="1.0" encoding="UTF-8"?>
<svg width="16px" height="16px" viewBox="0 0 16 16" version="1.1" xmlns="http://www.w3.org/2000/svg" xmlns:xlink="http://www.w3.org/1999/xlink">
    <title>提示</title>
    <g id="页面-1" stroke="none" stroke-width="1" fill="none" fill-rule="evenodd">
        <g id="我是董事-状态" transform="translate(-163.000000, -1003.000000)" fill-rule="nonzero">
            <g id="编组-35备份-5" transform="translate(133.000000, 841.000000)">
                <g id="提示" transform="translate(30.000000, 162.000000)">
                    <path d="M15.3671111,4.88711111 C14.9457778,3.91111111 14.3733333,3.06311111 13.6551111,2.34488889 C12.9351111,1.62488889 12.0906667,1.05422222 11.1217778,0.631111111 C10.1528889,0.211555556 9.11466667,0 8.00888889,0 C6.90311111,0 5.86311111,0.211555556 4.88711111,0.632888889 C3.91288889,1.056 3.06488889,1.62666667 2.34488889,2.34666667 C1.62488889,3.06488889 1.05422222,3.91288889 0.632888889,4.88888889 C0.211555556,5.86311111 0,6.90311111 0,8.00888889 C0,9.11466667 0.211555556,10.1528889 0.632888889,11.1217778 C1.05422222,12.0906667 1.62488889,12.9351111 2.34488889,13.6551111 C3.06488889,14.3751111 3.91111111,14.9457778 4.88711111,15.3671111 C5.86311111,15.7902222 6.90311111,16.0017778 8.00888889,16.0017778 C9.11466667,16.0017778 10.1528889,15.7902222 11.1217778,15.3671111 C12.0906667,14.9457778 12.9351111,14.3751111 13.6551111,13.6551111 C14.3751111,12.9351111 14.9457778,12.0924444 15.3671111,11.1217778 C15.7884444,10.1528889 16,9.11466667 16,8.00888889 C16,6.90311111 15.7884444,5.86311111 15.3671111,4.88711111 Z" id="路径" fill-opacity="0.2" fill="#EBEBF5"></path>
                    <path d="M8.00711111,10.9795556 C8.31644444,10.9795556 8.58133333,11.088 8.8,11.3066667 C9.01866667,11.5253333 9.12711111,11.7902222 9.12711111,12.0977778 C9.12711111,12.4053333 9.01866667,12.6702222 8.8,12.8888889 C8.58133333,13.1075556 8.31644444,13.2177778 8.00711111,13.2177778 C7.69777778,13.2177778 7.43111111,13.1075556 7.20711111,12.8888889 C6.98311111,12.6702222 6.87111111,12.4053333 6.87111111,12.0977778 C6.87111111,11.7884444 6.98311111,11.5253333 7.20711111,11.3066667 C7.43111111,11.088 7.69777778,10.9795556 8.00711111,10.9795556 Z M8.00711111,2.784 C8.25244444,2.784 8.46044444,2.864 8.63111111,3.024 C8.80177778,3.184 8.88711111,3.392 8.88711111,3.648 L8.87111111,8.99377778 C8.87111111,9.24977778 8.78755556,9.46488889 8.624,9.64088889 C8.45866667,9.81688889 8.25422222,9.90577778 8.00711111,9.90577778 C7.76177778,9.90577778 7.55377778,9.81688889 7.38311111,9.64088889 C7.21244444,9.46488889 7.12711111,9.24977778 7.12711111,8.99377778 L7.12711111,3.632 C7.12711111,3.376 7.21244444,3.16977778 7.38311111,3.01511111 C7.55377778,2.86044444 7.76177778,2.784 8.00711111,2.784 Z" id="形状结合" fill="#FFFFFF"></path>
                </g>
            </g>
        </g>
    </g>
</svg>