<?xml version="1.0" encoding="UTF-8"?>
<svg width="48px" height="48px" viewBox="0 0 48 48" version="1.1" xmlns="http://www.w3.org/2000/svg" xmlns:xlink="http://www.w3.org/1999/xlink">
    <title>赎回中</title>
    <defs>
        <rect id="path-1" x="0" y="0" width="21" height="15" rx="4"></rect>
    </defs>
    <g id="页面-1" stroke="none" stroke-width="1" fill="none" fill-rule="evenodd">
        <g id="我的" transform="translate(-822.000000, -449.000000)">
            <g id="编组-17" transform="translate(360.000000, 393.000000)">
                <g id="编组-23" transform="translate(462.000000, 45.000000)">
                    <g id="赎回中" transform="translate(0.000000, 11.000000)">
                        <path d="M13.4190378,1.41176471 L13.43333,1.40986039 C20.4563979,0.474094105 27.5726089,0.474734471 34.5955084,1.41176471 C40.8399537,2.24492972 45.7506752,7.1606304 46.5775115,13.4059169 L46.6077892,13.6346109 C47.5318405,20.6141851 47.5252651,27.6855428 46.5882353,34.6633865 C45.7546992,40.8705366 40.8701815,45.7520483 34.6625194,46.5817632 L34.6140974,46.5882353 C27.6035364,47.5252655 20.4996089,47.5275386 13.4884496,46.5949952 L13.3301483,46.5739397 C7.12752141,45.7489379 2.24520597,40.8732616 1.41176471,34.671763 C0.47473497,27.6994798 0.467432302,20.6336573 1.39004806,13.6594521 L1.4216783,13.4203539 C2.24894294,7.16692365 7.16638418,2.24487958 13.4190378,1.41176471 Z" id="矩形" fill="#109899"></path>
                        <g id="编组-21" transform="translate(14.000000, 14.000000)">
                            <path d="M16.300618,1.93135418 L16.9039223,3.59738836 C16.9415311,3.70124556 16.8878261,3.81592639 16.7839689,3.85353516 C16.7627551,3.86121712 16.7403943,3.8652542 16.7178334,3.86547545 L3.66712788,3.99345778 C3.61190206,3.99399935 3.56669365,3.94966902 3.56615208,3.8944432 C3.56572125,3.85051024 3.5940161,3.81144196 3.63589205,3.79814931 L13.6434203,0.621467807 C14.7371493,0.274286316 15.9099099,0.852407828 16.300618,1.93135418 Z" id="路径" fill="#FFFFFF" fill-rule="nonzero"></path>
                            <g id="编组-19" transform="translate(0.000000, 5.000000)">
                                <mask id="mask-2" fill="white">
                                    <use xlink:href="#path-1"></use>
                                </mask>
                                <use id="蒙版" fill="#FFFFFF" xlink:href="#path-1"></use>
                                <g mask="url(#mask-2)" fill="#109899" fill-rule="nonzero">
                                    <g transform="translate(19.114004, 7.652711) rotate(-270.000000) translate(-19.114004, -7.652711) translate(15.387962, -0.032795)">
                                        <path d="M0.237231166,11.1069381 C0.53009628,10.8128135 0.991869789,10.789246 1.31179401,11.0369025 L1.38864003,11.1044675 L3.70567272,13.4123204 L6.06824481,11.0997275 C6.36478591,10.8093094 6.8268193,10.7915514 7.14360349,11.043212 L7.21959369,11.1117381 C7.51001175,11.4082792 7.52776973,11.8703126 7.2761092,12.1870968 L7.20758306,12.263087 L4.27158306,15.1384639 C3.9776758,15.4263026 3.52056777,15.4466439 3.20359341,15.2007447 L3.12744481,15.1337239 L0.239701775,12.258347 C-0.0789332442,11.9410764 -0.0800393734,11.4255731 0.237231166,11.1069381 Z" id="路径-24"></path>
                                        <path d="M3.72965988,8.01075294e-06 C4.14719177,0.00188760336 4.48991858,0.317716185 4.53514968,0.722839832 L4.54020528,0.817812758 L4.50925136,14.5604016 C4.50725349,15.0100514 4.14112077,15.3729449 3.69147104,15.3710031 C3.27393915,15.3690919 2.93121234,15.0532633 2.88598124,14.6481396 L2.88092565,14.5531667 L2.91187956,0.810577835 C2.91387743,0.360928105 3.28001015,-0.00196542921 3.72965988,8.01075294e-06 Z" id="路径-25"></path>
                                    </g>
                                </g>
                            </g>
                            <rect id="矩形" fill="#109899" x="2.5" y="16" width="5" height="2" rx="1"></rect>
                        </g>
                    </g>
                </g>
            </g>
        </g>
    </g>
</svg>