<?xml version="1.0" encoding="UTF-8"?>
<svg width="24px" height="25px" viewBox="0 0 24 25" version="1.1" xmlns="http://www.w3.org/2000/svg" xmlns:xlink="http://www.w3.org/1999/xlink">
    <title>提案公投</title>
    <defs>
        <polygon id="path-1" points="0 24 24 24 24 0 0 0"></polygon>
    </defs>
    <g id="页面-1" stroke="none" stroke-width="1" fill="none" fill-rule="evenodd">
        <g id="Tab-bar" transform="translate(-235.000000, -180.000000)">
            <g id="底部栏备份-3" transform="translate(59.000000, 173.976183)">
                <g id="2备份" transform="translate(150.000000, 0.000000)">
                    <g id="提案公投" transform="translate(26.000000, 7.000000)">
                        <mask id="mask-2" fill="white">
                            <use xlink:href="#path-1"></use>
                        </mask>
                        <g id="路径"></g>
                        <path d="M17.6552756,0 C19.8644146,-4.05812251e-16 21.6552756,1.790861 21.6552756,4 L21.6552756,4 L21.6552756,22.9890234 C21.6552756,23.1607108 21.6110726,23.3295065 21.5269228,23.4791573 C21.2562293,23.9605547 20.6465392,24.1313641 20.1651418,23.8606706 L20.1651418,23.8606706 L12.5700069,19.5898684 C12.2671702,19.419581 11.897651,19.4186814 11.5939889,19.5874923 L11.5939889,19.5874923 L3.88588411,23.8725564 C3.7372672,23.9551751 3.57003772,23.9985332 3.4,23.9985332 C2.84771525,23.9985332 2.4,23.5508179 2.4,22.9985332 L2.4,22.9985332 L2.4,4 C2.4,1.790861 4.190861,4.05812251e-16 6.4,0 L6.4,0 Z M15.7717192,6.80962835 L8.28355644,6.80962835 L8.15880244,6.81682526 C7.62678058,6.87861876 7.2138189,7.33076614 7.2138189,7.87936588 C7.2138189,8.47016561 7.69275671,8.94910342 8.28355644,8.94910342 L8.28355644,8.94910342 L15.7717192,8.94910342 L15.8964732,8.94190651 C16.428495,8.88011301 16.8414567,8.42796563 16.8414567,7.87936588 C16.8414567,7.28856616 16.3625189,6.80962835 15.7717192,6.80962835 L15.7717192,6.80962835 Z" id="形状结合备份-3" fill="#0F8585" fill-rule="nonzero" mask="url(#mask-2)"></path>
                    </g>
                </g>
            </g>
        </g>
    </g>
</svg>