<?xml version="1.0" encoding="UTF-8"?>
<svg width="21px" height="21px" viewBox="0 0 21 21" version="1.1" xmlns="http://www.w3.org/2000/svg" xmlns:xlink="http://www.w3.org/1999/xlink">
    <title>笑脸</title>
    <g id="页面-1" stroke="none" stroke-width="1" fill="none" fill-rule="evenodd">
        <g id="Dao首页切图" transform="translate(-419.000000, -1583.000000)" fill="#38AFB7" fill-rule="nonzero">
            <g id="编组-7" transform="translate(360.000000, 1311.000000)">
                <g id="编组-28" transform="translate(44.000000, 45.000000)">
                    <g id="编组-62" transform="translate(0.000000, 220.000000)">
                        <g id="编组" transform="translate(15.882422, 4.882422)">
                            <path d="M9.99994805,3 C11.3502043,3 12.6597334,3.264311 13.8921977,3.78558238 C15.0829219,4.28921743 16.1524256,5.01033244 17.0710206,5.92892746 C17.9896156,6.84752247 18.7107566,7.91702619 19.2144176,9.1077244 C19.735689,10.3401628 20,11.6497178 20,13 C20,14.3502303 19.735689,15.6597593 19.2144176,16.8921977 C18.7107566,18.0829219 17.9896416,19.1524256 17.0710206,20.0709946 C16.1524256,20.9895896 15.0828959,21.7107306 13.8921977,22.2143657 C12.6597593,22.735663 11.3502303,22.9999481 9.99994805,22.9999481 C8.64969182,22.9999481 7.34016275,22.7356371 6.1077244,22.2143657 C4.91702619,21.7107306 3.84752247,20.9896156 2.92892746,20.0710206 C2.01033244,19.1524256 1.28921743,18.0829219 0.785582375,16.8921977 C0.264311002,15.6598113 0,14.3502822 0,13 C0,11.6497178 0.264311002,10.3401628 0.785582375,9.1077244 C1.28921743,7.91700022 2.01033244,6.8474965 2.92892746,5.92892746 C3.84752247,5.01033244 4.91702619,4.28921743 6.1077244,3.78558238 C7.34013678,3.264311 8.64969182,3 9.99994805,3 Z M14.4456508,13.2218696 L5.55484271,13.2218696 C5.00175324,13.2218696 4.58593614,13.7189332 4.69242937,14.2531136 C5.18035018,16.7003281 7.37122761,18.546531 10.0002857,18.546531 C12.6292399,18.546531 14.8202212,16.7003281 15.3080901,14.2531136 C15.4145054,13.7189072 14.9986883,13.2218696 14.4456508,13.2218696 Z M6.22826954,7.45349493 C5.37060943,7.45349493 4.67523461,8.24816819 4.67523461,9.22837343 C4.67523461,10.2086306 5.37060943,11.0032519 6.22826954,11.0032519 C7.08598159,11.0032519 7.78130446,10.2086306 7.78130446,9.22837343 C7.78130446,8.24814221 7.08598159,7.45349493 6.22826954,7.45349493 Z M13.7714967,7.45349493 C12.9138366,7.45349493 12.2185137,8.24816819 12.2185137,9.22837343 C12.2185137,10.2086306 12.9138366,11.0032519 13.7714967,11.0032519 C14.6292088,11.0032519 15.3245316,10.2086306 15.3245316,9.22837343 C15.3245316,8.24814221 14.6292088,7.45349493 13.7714967,7.45349493 Z" id="笑脸"></path>
                        </g>
                    </g>
                </g>
            </g>
        </g>
    </g>
</svg>