<?xml version="1.0" encoding="UTF-8"?>
<svg width="30px" height="30px" viewBox="0 0 30 30" version="1.1" xmlns="http://www.w3.org/2000/svg" xmlns:xlink="http://www.w3.org/1999/xlink">
    <title>支持</title>
    <g id="提案" stroke="none" stroke-width="1" fill="none" fill-rule="evenodd">
        <g id="社区提案-详情" transform="translate(-1590.000000, -973.000000)">
            <g id="编组-4" transform="translate(1560.000000, 958.000000)">
                <g id="支持" transform="translate(30.000000, 15.000000)">
                    <rect id="矩形" x="0" y="0" width="30" height="30"></rect>
                    <path d="M17.3813238,1.5 C17.3813238,1.5 21.8231976,2.01049927 19.1933267,12.0056864 L19.1933267,12.0056864 L25.9866652,12.0052251 C26.0999351,11.9977892 27.6857143,11.9250941 27.6857143,13.683878 L27.6857143,13.683878 L27.6850984,13.715532 C27.6758594,14.0364355 27.5280362,16.8622959 25.1628645,25.1385229 C25.1628645,25.1385229 24.3813416,27.7285714 23.4216252,27.7285714 L23.4216252,27.7285714 L13.2242268,27.7285714 C12.513409,27.7285714 10.7014062,27.2357667 10.7014062,25.8674857 L10.7014062,25.8674857 L10.7014062,12.0056864 C10.7014062,12.0056864 15.7465803,8.17542471 15.7465803,3.28733328 C15.888954,3.03194845 15.4986742,1.5 17.3813238,1.5 Z M7.92451183,12.0103263 C8.02209757,12.0118615 8.94916219,12.0532156 8.94916219,13.0704257 L8.94916219,13.0704257 L8.94902763,27.1474329 C8.94674061,27.2157986 8.90679063,27.7285414 8.22287122,27.7285414 L8.22287122,27.7285414 L4.69681017,27.7283603 C4.60654548,27.7254625 3.83929565,27.6761999 3.83929565,26.8387351 L3.83929565,26.8387351 L3,12.8586014 C3,12.8586014 3.01293246,12.0102786 3.85222812,12.0102786 L3.85222812,12.0102786 Z" id="形状结合" fill="#FFFFFF" fill-rule="nonzero"></path>
                </g>
            </g>
        </g>
    </g>
</svg>