<?xml version="1.0" encoding="UTF-8"?>
<svg width="14px" height="14px" viewBox="0 0 14 14" version="1.1" xmlns="http://www.w3.org/2000/svg" xmlns:xlink="http://www.w3.org/1999/xlink">
    <title>问号</title>
    <g id="页面-1" stroke="none" stroke-width="1" fill="none" fill-rule="evenodd">
        <g id="节点竞选" transform="translate(-1115.000000, -704.000000)">
            <g id="编组-8" transform="translate(361.000000, 612.000000)">
                <g id="编组-19" transform="translate(0.000000, 60.000000)">
                    <g id="编组-16" transform="translate(627.000000, 28.000000)">
                        <g id="问号" transform="translate(127.000000, 4.000000)">
                            <path d="M7,14 C3.13380472,14 0,10.8661953 0,7 C0,3.13380472 3.13380472,0 7,0 C10.8661953,0 14,3.13380472 14,7 C14,10.8661953 10.8661953,14 7,14 Z" id="路径" fill-opacity="0.3" fill="#EBEBF5"></path>
                            <path d="M7,9.18749712 C7.2594444,9.20367778 7.46986999,9.2911949 7.63175357,9.45130968 C7.79406782,9.6109938 7.87500192,9.81486714 7.87500192,10.062499 C7.87500192,10.3101309 7.79362178,10.5179418 7.63175357,10.6859316 C7.46988537,10.8535061 7.2594444,10.937501 7,10.937501 C6.6596215,10.937501 6.40849815,10.7935668 6.24662994,10.5061293 C6.08474636,10.2182457 6.08474636,9.93080809 6.24662994,9.64292447 C6.40849815,9.35550228 6.6596215,9.20369316 7,9.18749712 Z M7.04681935,3.15218485 C8.66556291,3.16662748 9.41195005,4.16106181 9.44255797,5.17430693 C9.46312218,5.85068038 9.1017488,6.50081409 8.11388211,7.08444094 C7.94587694,7.18375517 7.83344283,7.29094441 7.76081439,7.40513193 C7.6610695,7.56130922 7.63699845,7.7231928 7.65493253,7.90519456 C7.65274845,7.88463034 7.67025187,8.02901051 7.67025187,8.07930593 C7.67139059,8.31453285 7.54656014,8.53236615 7.34304863,8.65030187 C7.13953713,8.76823759 6.88847143,8.76823759 6.68495992,8.65030187 C6.48144841,8.53236615 6.35661796,8.31453285 6.35775668,8.07932131 C6.35775668,8.11649685 6.35861801,8.12524857 6.35118905,8.05655763 C6.302201,7.60113027 6.36518564,7.15313187 6.65349992,6.70031926 C6.83899312,6.40894419 7.10323635,6.15694413 7.44669103,5.95437816 C7.79405244,5.74919745 7.99049682,5.56018202 8.08105935,5.39743711 C8.11632941,5.3426757 8.13375594,5.27832705 8.13093949,5.21325127 C8.11955765,4.83480514 7.84699337,4.47169372 7.0345608,4.46424938 C6.29387995,4.45769713 5.98281738,4.68650285 5.8869946,5.24212115 C5.81825224,5.59164383 5.48323026,5.82250585 5.13213834,5.76228896 C4.78104642,5.70207207 4.54210049,5.37276698 4.59375625,5.02031373 C4.80418184,3.7931208 5.69361101,3.13949564 7.04681935,3.15218485 Z" id="形状结合" fill="#FFFFFF"></path>
                        </g>
                    </g>
                </g>
            </g>
        </g>
    </g>
</svg>