<?xml version="1.0" encoding="UTF-8"?>
<svg width="30px" height="30px" viewBox="0 0 30 30" version="1.1" xmlns="http://www.w3.org/2000/svg" xmlns:xlink="http://www.w3.org/1999/xlink">
    <title>翻译</title>
    <defs>
        <rect id="path-1" x="0" y="0" width="30" height="30"></rect>
    </defs>
    <g id="提案" stroke="none" stroke-width="1" fill="none" fill-rule="evenodd">
        <g id="提案公投-详情" transform="translate(-790.000000, -266.000000)">
            <g id="翻译" transform="translate(790.000000, 266.000000)">
                <mask id="mask-2" fill="white">
                    <use xlink:href="#path-1"></use>
                </mask>
                <g id="蒙版"></g>
                <g id="编组" mask="url(#mask-2)" fill-rule="nonzero">
                    <g transform="translate(0.000000, -0.000000)">
                        <path d="M28.0703358,5.38041918 L15.3953606,5.38041918 L14.0761249,10.4839248 L13.6025125,13.8379417 L16.1413161,20.9186896 L16.5489521,29.5108017 L28.0703944,29.5108017 C29.1358611,29.5108017 30,28.6466628 30,27.5811961 L30,7.31002479 C30,6.24455812 29.1358025,5.38041918 28.0703358,5.38041918 Z" id="路径" fill="#E6E6E6"></path>
                        <polygon id="路径" fill="#216B6C" points="21.6032391 24.1303826 16.5488935 29.5108017 14.7586821 24.1303826 15.4891104 22.1687262"></polygon>
                        <path d="M27.5135205,14.0624725 L27.5135205,12.8396234 L22.8668108,12.8396234 L22.8668108,11.1276931 L21.6439616,11.1276931 L21.6439616,12.8396234 L17.4562159,12.8396234 L17.4562159,14.0624725 L24.2466323,14.0624725 C23.8689378,14.8577054 23.2141539,16.1258474 22.3143314,17.4629542 C21.4862862,16.4288351 20.963045,15.7091881 20.9568341,15.7006334 L20.5977137,15.2058101 L19.60795,15.9238751 L19.9669532,16.4186984 C19.9949024,16.457253 20.6042176,17.295435 21.568786,18.4870537 C20.9112482,19.2926576 19.7050396,20.6026355 19.0694745,21.2381421 L19.9340822,22.1027498 C20.4826358,21.5541962 21.6200554,20.3324017 22.3613821,19.4468761 C23.3257748,20.5925574 24.2670229,21.6262078 25.1653219,22.5245654 L25.5976258,22.9568692 L26.4623507,22.0923201 L26.0300468,21.6600163 C25.1019822,20.7319517 24.1246404,19.652364 23.1210486,18.4491437 C24.4179015,16.5845184 25.2585444,14.8189164 25.5937,14.0624725 L27.5135205,14.0624725 Z" id="路径" fill="#666666"></path>
                        <path d="M20.4684561,20.7040025 L21.6032391,24.1303826 L1.92960561,24.1303826 C0.863318626,24.1303826 0,23.2662436 0,22.200777 L0,1.92960561 C0,0.864138937 0.863318626,0 1.92960561,0 L13.614114,0 L15.3953606,5.38041918 L18.0676405,13.4510479 L20.4684561,20.7040025 Z" id="路径" fill="#31999B"></path>
                        <path d="M8.202,17.3333333 L8.202,16.1013333 L3.652,16.1013333 L3.652,12.9933333 L7.782,12.9933333 L7.782,11.7753333 L3.652,11.7753333 L3.652,8.76533333 L8.132,8.76533333 L8.132,7.53333333 L2.35,7.53333333 L2.35,17.3333333 L8.202,17.3333333 Z M10.862,17.3333333 L10.862,13.6233333 C10.862,11.9713333 11.772,11.3133333 12.892,11.3133333 C13.97,11.3133333 14.628,11.9573333 14.628,13.1053333 L14.628,17.3333333 L15.846,17.3333333 L15.846,13.0353333 C15.846,11.2433333 14.768,10.1513333 13.13,10.1513333 C12.15,10.1513333 11.38,10.5153333 10.862,11.3413333 L10.862,10.3333333 L9.644,10.3333333 L9.644,17.3333333 L10.862,17.3333333 Z" id="En" fill="#FFFFFF"></path>
                    </g>
                </g>
            </g>
        </g>
    </g>
</svg>