<?xml version="1.0" encoding="UTF-8"?>
<svg width="16px" height="16px" viewBox="0 0 16 16" version="1.1" xmlns="http://www.w3.org/2000/svg" xmlns:xlink="http://www.w3.org/1999/xlink">
    <title>收缩</title>
    <g id="页面-1" stroke="none" stroke-width="1" fill="none" fill-rule="evenodd">
        <g id="H5节点-弹窗" transform="translate(-97.000000, -975.000000)">
            <g id="链接钱包备份-6" transform="translate(16.000000, 626.000000)">
                <g id="编组-29" transform="translate(20.000000, 344.000000)">
                    <g id="收缩" transform="translate(69.000000, 13.000000) scale(1, -1) translate(-69.000000, -13.000000) translate(61.000000, 5.000000)">
                        <rect id="矩形" x="0" y="0" width="16" height="16"></rect>
                        <path d="M8.73715414,6.80416815 L11.9639191,10.3242754 C12.3371115,10.7313944 12.3096086,11.3639617 11.9024896,11.7371541 C11.7180598,11.9062148 11.4769566,12 11.226765,12 L4.77323505,12 C4.2209503,12 3.77323505,11.5522847 3.77323505,11 C3.77323505,10.7498083 3.86702024,10.5087052 4.03608091,10.3242754 L7.26284586,6.80416815 C7.63603827,6.39704916 8.26860564,6.36954623 8.67572463,6.74273864 C8.69708133,6.76231561 8.71757717,6.78281145 8.73715414,6.80416815 Z" id="三角形" fill="#0F8585" transform="translate(8.000000, 9.000000) rotate(-180.000000) translate(-8.000000, -9.000000) "></path>
                    </g>
                </g>
            </g>
        </g>
    </g>
</svg>